<?xml version="1.0" encoding="UTF-8" standalone="no"?>
<!DOCTYPE svg PUBLIC "-//W3C//DTD SVG 1.1//EN" "http://www.w3.org/Graphics/SVG/1.1/DTD/svg11.dtd">
<svg width="100%" height="100%" viewBox="0 0 2000 2000" version="1.1" xmlns="http://www.w3.org/2000/svg" xmlns:xlink="http://www.w3.org/1999/xlink" xml:space="preserve" xmlns:serif="http://www.serif.com/" style="fill-rule:evenodd;clip-rule:evenodd;stroke-linejoin:round;stroke-miterlimit:2;">
    <g id="Keupera-Logo.svg" serif:id="Keupera Logo.svg" transform="matrix(0.855305,0,0,0.855305,1000,1000)">
        <g transform="matrix(1,0,0,1,-2500,-2500)">
            <g transform="matrix(1,0,0,1,-163.376,217.178)">
                <path d="M1661.42,2872.8C1661.42,2634.18 1805.16,2419.06 2025.62,2327.75C2246.07,2236.43 2499.82,2286.91 2668.55,2455.64C3167.79,2954.88 3665.33,3452.41 3665.33,3452.41L1661.42,3452.41L1661.42,2872.8Z"/>
            </g>
            <g transform="matrix(-1,0,0,-1,5163.38,4782.82)">
                <path d="M1661.42,2872.8C1661.42,2634.18 1805.16,2419.06 2025.62,2327.75C2246.07,2236.43 2499.82,2286.91 2668.55,2455.64C3167.79,2954.88 3665.33,3452.41 3665.33,3452.41L1661.42,3452.41L1661.42,2872.8Z"/>
            </g>
        </g>
    </g>
</svg>
